@startuml

skinparam ClassFontSize 11
skinparam ClassFontName Verdana



package View {
    package common {
        abstract class ViewInChief {
            # $topMainLayoutHTML : string
            # $bottomMainLayoutHTML : string
            # $pageContent : string
            --
            # topMainLayoutAssembly()
            # bottomMainLayoutAssembly()
            # pageSetup()
            # pageDisplay()
        }
    }

    package home {
        class HomePageBuilder extends ViewInChief {
            - $pageSettingsList : array
            - $eventsData : array
            - $builtContentHTML : string
            - $futureEventsHTML : string
            - $eventsBuilder : object
            --
            + __construct()
            + dataReceiver()
            - buildOrder()
        }

    }

    package login {
        class LoginPageBuilder extends ViewInChief {
            - $pageSettingsList : array
            --
            + __construct()
            + buildOrder()
        }
    }

    package medic {
        package allEvents///medic {

        }

        package doc///medic {
            package docList///doc///medic {
                class DocListPageBuilder extends ViewInChief {
                    - $pageSettingsList : array
                    - $builtContentHTML : string
                    - $docList : array
                    - $speMedicBadgeList : array
                    --
                    + __construct()
                    + buildOrder()
                    - docCardsBuilder()
                    - cardTop()
                    - cardSpeMedicBadgesBuilder()
                    - cardBottom()
                    - addDocButton()
                    - speMedicBadgesBuilder()
                }
            }

            package eventWithOneDoc///doc///medic {
                class EventsWithOneDocPageBuilder extends ViewInChief {
                    - $pageSettingsList : array
                    - $eventsData : array
                    - $builtContentHTML : string
                    - $pastEventsHTML : string
                    - $futureEventsHTML : string
                    --
                    + __construct()
                    + dataReceiver()
                    - buildOrder()
                }
            }

            package oneDoc///doc///medic {
                class OneDocPageBuilder extends ViewInChief {
                    - $pageSettingsList : array
                    - $builtContentHTML : string
                    - $docDataArray : array
                    - $speMedicBadgeList : array
                    --
                    + __construct()
                    + dataReceiver()
                    - buildOrder()
                }
            }
        }

        package docOffice///medic {

        }

        package eventsBuilder///medic {
            class EventsBuilder extends EventsBuilderFunctionPool {
                - $eventsData : array
                - $allEventsHTMLArray : array
                - $allEventsFullHTML : string
                - $diagAccordionObj : object
                --
                + __construct()
                + eventBuildOrder()
            }

            abstract class EventsBuilderFunctionPool {
                # eventAccordStart()
                # eventAccordHeaderStart()
                # docSpeMedicBadges()
                # attendedPro()
                # replacedPro()
                # eventDateTime()
                # eventDocOffice()
                # eventSubject()
                # eventCategory()
                # medicThemeBadges()
                # eventMedicTheme()
                # eventContentButton()
                # eventAccordHeaderEnd()
                # eventAccordBodyStart()
                # eventFullAddrAccordStart()
                # eventFullAddrAccordContent()
                # eventFullAddrAccordEnd()
                # eventAccordComment()
                # eventAccordBodyEnd()
                # eventAccordEnd()
            }

            package diag///eventsBuilder///medic {
                class DiagBuilder extends DiagBuilderFunctionsPool {
                    - $pharmaOrdoObj : object
                    - $glassOrdoObj : object
                    - $lensOrdoObj : object
                    - $laboOrdoObj : object
                    - $vaxOrdoObj : object
                    --
                    + __construct()
                    + diagBuilder()
                    - pharmaOrdo()
                    - glassOrdo()
                    - lensOrdo()
                    - laboOrdo()
                    - vaxOrdo()
                }

                abstract class DiagBuilderFunctionsPool
                {
                    # diagAccordionStart()
                    # diagSymptomsBuilder()
                    # diagBetweenSymptAndChecks()
                    # diagChecks()
                    # diagBetweenChecksAndConclu()
                    # diagConclu()
                    # sickDetailedStatusBadge()
                    # diagComment()
                    # diagAccordionEnd()
                }
            }

                package ordo///eventsBuilder///medic {
                    package glass///ordo///eventsBuilder///medic {
                        class GlassOrdoBuilder {
                            + ordoBuilder()
                        }
                    }

                package labo///ordo///eventsBuilder///medic {
                    class LaboOrdoBuilder extends LaboOrdoBuilderFunctionsPool
                    {
                        - $prescLaboObj : object
                        --
                        + __construct()
                        + ordoBuilder()
                    }

                    abstract class LaboOrdoBuilderFunctionsPool {
                        # ordoLaboAccordionStart()
                        # ordoLaboAccordionEnd()
                    }
                }

                package lens///ordo///eventsBuilder///medic {
                    class LensOrdoBuilder {
                        + ordoBuilder()
                    }

                }

                package pharma///ordo///eventsBuilder///medic {
                    class PharmaOrdoBuilder extends PharmaOrdoBuilderFunctionsPool
                    {
                        - $pharmaPrescObj : object
                        --
                        + __construct()
                        + ordoBuilder()
                    }

                    abstract class PharmaOrdoBuilderFunctionsPool
                    {
                        # ordoPharmaStarter()
                        # ordoPharmaComment()
                        # ordoPharmaEnd()
                    }
                }

                package vax///ordo///eventsBuilder///medic {
                    class VaxOrdoBuilder extends VaxOrdoBuilderFunctionsPool {
                        - $prescVaxObj : object
                        --
                        + __construct()
                        + ordoBuilder()
                    }

                    abstract class VaxOrdoBuilderFunctionsPool {
                        # ordoVaxStarter()
                        # ordoComment()
                        # ordoVaxEnd()
                    }
                }
            }

            package presc///eventsBuilder///medic {
                package labo///presc///eventsBuilder///medic {
                    class PrescLaboBuilder extends PrescLaboBuilderFunctionsPool {
                        + prescBuilder()
                    }

                    abstract class PrescLaboBuilderFunctionsPool {
                        # prescStarter()
                        # prescComment()
                        # prescEnd()
                    }
                }

                package pharma///presc///eventsBuilder///medic {
                    class PharmaPrescBuilder {
                        + prescBuilder()
                    }
                }

                package vax///presc///eventsBuilder///medic {
                    class PrescVaxBuilder {
                        + prescBuilder()
                    }
                }
            }
        }
    }

    package userAccount {

    }

}


OneDocPageBuilder -[hidden]--> EventsBuilderFunctionPool
EventsBuilder -[hidden]-> DiagBuilderFunctionsPool
DiagBuilder -[hidden]--> PharmaOrdoBuilderFunctionsPool
VaxOrdoBuilder -[hidden]--> PrescVaxBuilder



@enduml